<svg width="201" height="369" viewBox="0 0 201 369" fill="none" xmlns="http://www.w3.org/2000/svg">
<path fill-rule="evenodd" clip-rule="evenodd" d="M45.5 151.019L51 89.5194C50.6667 79.0194 50.7 55.9194 53.5 47.5194C57 37.0194 74 -0.980627 101 0.0193732C122.6 0.819373 138.667 34.3527 144 51.0194C144 57.686 144.3 72.2194 145.5 77.0194C147 83.0194 152 148.519 150.5 152.019C155 152.019 196 152.019 197.5 153.019C198.7 153.819 197.333 158.686 196.5 161.019V171.019L200.5 355.019C195.667 359.186 185.5 367.719 183.5 368.519C181 369.519 21 366.019 19 368.519C14.5 365.019 19 368.519 3 355.019C3 348 3.03437 347.5 3 341.519C2.66667 283.519 1.8 167.219 1 166.019C0.2 164.819 0 155.519 0 151.019C9 150.186 30.7 149.019 45.5 151.019ZM62 52.5194C60.4 54.5194 63.3333 119.686 65 152.019L132.5 153.019C133.5 144.519 132.5 141.519 134.5 125.519C136 120.019 139 52.5194 135 43.0194C135.8 34.6194 122.667 19.5194 116 13.0194C111.5 9.18605 99.4 3.51938 87 11.5194C58.5 29.5194 64 50.0194 62 52.5194Z" fill="#090909"/>
</svg>
